<svg xmlns="http://www.w3.org/2000/svg" version="1.1" xmlns:xlink="http://www.w3.org/1999/xlink" width="1000" height="1000"><g clip-path="url(#SvgjsClipPath1049)"><rect width="1000" height="1000" fill="#ffffff"></rect><g transform="matrix(1.8018018018018018,0,0,1.8018018018018018,0,118.01801801801804)"><svg xmlns="http://www.w3.org/2000/svg" version="1.1" xmlns:xlink="http://www.w3.org/1999/xlink" width="555" height="424"><svg width="555" height="424" viewBox="0 0 555 424" fill="none" xmlns="http://www.w3.org/2000/svg">
<rect x="213.5" y="23.5" width="302" height="222" rx="39.5" stroke="#969696" stroke-dasharray="8 20"></rect>
<path fill-rule="evenodd" clip-rule="evenodd" d="M242.246 94.1421C279.522 91.2527 316.964 75.8423 352.288 87.0052C389.481 98.7585 417.28 127.036 439.525 156.484C462.852 187.365 490.302 222.879 482.712 259.66C475.062 296.732 493.366 329.323 466.415 358.068C444.804 381.116 369.379 398.751 339.558 412.342C310.064 425.783 275.105 418.044 242.246 415.13C212.064 412.453 183.241 406.781 155.345 396.006C124.538 384.107 94.9047 370.57 71.2595 349.085C42.8316 323.255 1.15388 295.942 5.28505 259.66C9.5372 222.317 64.687 209.673 90.4798 180.288C111.525 156.312 113.91 119.526 142.564 103.262C171.354 86.92 208.394 96.766 242.246 94.1421Z" fill="#FBFBFB"></path>
<path d="M253 81C253 81.5528 252.553 82 252 82C251.447 82 251 81.5528 251 81C251 80.4472 251.447 80 252 80C252.553 80 253 80.4472 253 81Z" fill="#E2E2E2"></path>
<path d="M147 252H359V256.203C359 257.196 358.167 258 357.145 258H149.654C148.189 258 147 256.848 147 255.429V252Z" fill="#A8A8A8"></path>
<path d="M126.305 76H378.695C381.624 76 384 78.3741 384 81.3V245.168C384 250.595 379.592 255 374.16 255H130.84C125.408 255 121 250.595 121 245.168V81.3C121 78.3741 123.376 76 126.305 76Z" fill="#A8A8A8"></path>
<path d="M376 246.258V85.7422C376 85.3323 375.668 85 375.259 85L129.741 85C129.332 85 129 85.3323 129 85.7422V246.258C129 246.668 129.332 247 129.741 247L375.259 247C375.668 247 376 246.668 376 246.258Z" fill="white"></path>
<path d="M436.998 316.951V315.566L64 315V316.953C64 321.397 68.3802 325 73.7828 325H427.217C432.62 325 437 321.399 437 316.953L436.998 316.951Z" fill="#A8A8A8"></path>
<path d="M432.993 317H68.0045C63.9916 317 62.8105 315.096 65.3042 312.805L123.542 259.283C125.141 257.813 127.225 257 129.387 257H371.613C373.775 257 375.859 257.815 377.458 259.283L435.696 312.805C438.19 315.096 437.008 317 432.996 317H432.993Z" fill="white"></path>
<g opacity="0.3">
<path d="M149.725 266H133.839C133.158 266 132.822 265.776 133.095 265.502L136.108 262.47C136.365 262.212 137.114 262 137.774 262H153.133C153.793 262 154.154 262.212 153.937 262.47L151.386 265.502C151.156 265.776 150.409 266 149.725 266Z" fill="#D4D4D4"></path>
<path d="M169.423 266H153.876C153.209 266 152.844 265.776 153.064 265.502L155.511 262.47C155.72 262.212 156.418 262 157.064 262H172.095C172.741 262 173.13 262.212 172.96 262.47L170.966 265.502C170.786 265.776 170.092 266 169.423 266Z" fill="#D4D4D4"></path>
<path d="M189.941 266H173.961C173.276 266 172.862 265.776 173.042 265.502L175.044 262.47C175.214 262.212 175.897 262 176.559 262H192.009C192.673 262 193.108 262.212 192.977 262.47L191.442 265.502C191.304 265.776 190.629 266 189.941 266Z" fill="#D4D4D4"></path>
<path d="M230.153 266H214.104C213.415 266 212.923 265.776 213.01 265.502L213.986 262.47C214.07 262.212 214.683 262 215.349 262H230.865C231.533 262 232.042 262.212 231.997 262.47L231.49 265.502C231.443 265.776 230.842 266 230.153 266Z" fill="#D4D4D4"></path>
<path d="M209.61 266H194.003C193.334 266 192.892 265.776 193.023 265.502L194.474 262.47C194.598 262.212 195.228 262 195.877 262H210.966C211.615 262 212.075 262.212 211.99 262.47L210.993 265.502C210.904 265.776 210.28 266 209.61 266Z" fill="#D4D4D4"></path>
<path d="M269.861 266H254.281C253.613 266 253.06 265.776 253.056 265.502L253 262.47C252.996 262.212 253.522 262 254.167 262H269.23C269.878 262 270.443 262.212 270.486 262.47L270.997 265.502C271.043 265.776 270.534 266 269.865 266H269.861Z" fill="#D4D4D4"></path>
<path d="M290.91 266H274.919C274.233 266 273.628 265.776 273.577 265.502L273.003 262.47C272.954 262.212 273.458 262 274.123 262H289.582C290.247 262 290.861 262.212 290.95 262.47L291.988 265.502C292.082 265.776 291.598 266 290.912 266H290.91Z" fill="#D4D4D4"></path>
<path d="M310.008 266H294.459C293.792 266 293.166 265.776 293.071 265.502L292.012 262.47C291.921 262.212 292.375 262 293.021 262H308.055C308.701 262 309.333 262.212 309.463 262.47L310.975 265.502C311.111 265.776 310.678 266 310.008 266Z" fill="#D4D4D4"></path>
<path d="M331.05 266H315.127C314.444 266 313.765 265.776 313.622 265.502L312.025 262.47C311.89 262.212 312.319 262 312.979 262H328.372C329.034 262 329.717 262.212 329.893 262.47L331.955 265.502C332.141 265.776 331.735 266 331.05 266Z" fill="#D4D4D4"></path>
<path d="M367.823 266H335.115C334.159 266 333.157 265.685 332.891 265.3L331.061 262.661C330.809 262.296 331.36 262 332.285 262H363.906C364.83 262 365.881 262.296 366.243 262.661L368.867 265.3C369.249 265.683 368.779 266 367.823 266Z" fill="#D4D4D4"></path>
<path d="M249.781 266H234.15C233.48 266 232.963 265.776 233.002 265.502L233.448 262.47C233.486 262.212 234.048 262 234.698 262H249.81C250.46 262 250.992 262.212 250.992 262.47L251 265.502C251 265.776 250.452 266 249.781 266Z" fill="#D4D4D4"></path>
<path d="M356.587 272H373.139C373.851 272 374.189 271.718 373.893 271.376L370.624 267.587C370.345 267.263 369.557 267 368.871 267H352.891C352.205 267 351.835 267.263 352.072 267.587L354.84 271.376C355.09 271.718 355.877 272 356.589 272H356.587Z" fill="#D4D4D4"></path>
<path d="M335.848 272H352.097C352.796 272 353.167 271.718 352.927 271.376L350.26 267.587C350.032 267.263 349.296 267 348.622 267H332.935C332.261 267 331.86 267.263 332.045 267.587L334.218 271.376C334.415 271.718 335.147 272 335.846 272H335.848Z" fill="#D4D4D4"></path>
<path d="M315.283 272H332.005C332.724 272 333.148 271.718 332.952 271.376L330.769 267.587C330.584 267.263 329.865 267 329.171 267H313.027C312.334 267 311.884 267.263 312.026 267.587L313.704 271.376C313.855 271.718 314.568 272 315.285 272H315.283Z" fill="#D4D4D4"></path>
<path d="M272.875 272H288.905C289.594 272 290.081 271.718 289.989 271.376L288.97 267.587C288.882 267.263 288.269 267 287.604 267H272.128C271.463 267 270.956 267.263 271.003 267.587L271.537 271.376C271.586 271.718 272.187 272 272.877 272H272.875Z" fill="#D4D4D4"></path>
<path d="M293.567 272H309.956C310.66 272 311.116 271.718 310.974 271.376L309.383 267.587C309.247 267.263 308.58 267 307.9 267H292.078C291.398 267 290.919 267.263 291.011 267.587L292.105 271.376C292.203 271.718 292.862 272 293.565 272H293.567Z" fill="#D4D4D4"></path>
<path d="M231.198 272H247.65C248.358 272 248.939 271.718 248.943 271.376L249 267.587C249.004 267.263 248.45 267 247.768 267H231.884C231.202 267 230.606 267.263 230.557 267.587L230.003 271.376C229.953 271.718 230.49 272 231.198 272Z" fill="#D4D4D4"></path>
<path d="M210.083 272H226.062C226.749 272 227.352 271.718 227.407 271.376L227.996 267.587C228.047 267.263 227.546 267 226.883 267H211.457C210.795 267 210.179 267.263 210.087 267.587L209.013 271.376C208.915 271.718 209.398 272 210.083 272Z" fill="#D4D4D4"></path>
<path d="M189.031 272H205.371C206.073 272 206.732 271.718 206.836 271.376L207.987 267.587C208.085 267.263 207.61 267 206.934 267H191.16C190.482 267 189.813 267.263 189.673 267.587L188.028 271.376C187.88 271.718 188.33 272 189.033 272H189.031Z" fill="#D4D4D4"></path>
<path d="M167.987 272H184.654C185.371 272 186.083 271.718 186.241 271.376L187.972 267.587C188.119 267.263 187.674 267 186.983 267H170.892C170.201 267 169.48 267.263 169.288 267.587L167.051 271.376C166.849 271.718 167.268 272 167.984 272H167.987Z" fill="#D4D4D4"></path>
<path d="M129.191 272H162.695C163.675 272 164.709 271.604 164.991 271.126L166.933 267.825C167.2 267.371 166.645 267 165.698 267H133.352C132.405 267 131.319 267.371 130.934 267.825L128.146 271.126C127.74 271.606 128.209 272 129.189 272H129.191Z" fill="#D4D4D4"></path>
<path d="M252.289 272H268.791C269.501 272 270.042 271.718 269.997 271.376L269.501 267.587C269.458 267.263 268.865 267 268.18 267H252.249C251.564 267 251.004 267.263 251.004 267.587L251 271.376C251 271.718 251.579 272 252.289 272Z" fill="#D4D4D4"></path>
<path d="M340.017 277H377.837C378.813 277 379.264 276.648 378.842 276.218L376.402 273.742C375.999 273.332 374.896 273 373.95 273H337.295C336.348 273 335.797 273.334 336.07 273.742L337.721 276.218C338.006 276.646 339.042 277 340.017 277Z" fill="#D4D4D4"></path>
<path d="M317.515 277H334.974C335.723 277 336.159 276.719 335.946 276.375L333.572 272.586C333.369 272.264 332.615 272 331.891 272H315.062C314.34 272 313.874 272.262 314.03 272.586L315.852 276.375C316.017 276.719 316.767 277 317.517 277H317.515Z" fill="#D4D4D4"></path>
<path d="M360.912 277H378.12C378.859 277 379.2 276.719 378.88 276.375L375.34 272.586C375.039 272.264 374.209 272 373.498 272H356.912C356.2 272 355.825 272.262 356.08 272.586L359.076 276.375C359.348 276.719 360.175 277 360.914 277H360.912Z" fill="#D4D4D4"></path>
<path d="M273.998 277H290.855C291.579 277 292.088 276.719 291.987 276.375L290.871 272.586C290.776 272.264 290.129 272 289.429 272H273.181C272.484 272 271.954 272.262 272.003 272.586L272.587 276.375C272.641 276.719 273.276 277 274 277H273.998Z" fill="#D4D4D4"></path>
<path d="M295.743 277H312.915C313.652 277 314.127 276.719 313.97 276.375L312.234 272.586C312.087 272.264 311.385 272 310.673 272H294.121C293.411 272 292.91 272.262 293.013 272.586L294.207 276.375C294.314 276.719 295.008 277 295.745 277H295.743Z" fill="#D4D4D4"></path>
<path d="M320.758 283H338.944C339.725 283 340.171 282.718 339.938 282.375L337.361 278.585C337.141 278.262 336.349 278 335.597 278H318.095C317.343 278 316.865 278.262 317.034 278.585L319.013 282.375C319.192 282.718 319.978 283 320.76 283H320.758Z" fill="#D4D4D4"></path>
<path d="M366.258 283H384.103C384.87 283 385.211 282.718 384.864 282.375L381.036 278.585C380.71 278.262 379.843 278 379.105 278H361.931C361.193 278 360.814 278.262 361.09 278.585L364.331 282.375C364.623 282.718 365.493 283 366.258 283Z" fill="#D4D4D4"></path>
<path d="M341.086 280H359.383C359.87 280 360.121 279.83 359.942 279.625L358.845 278.366C358.67 278.164 358.134 278 357.653 278H339.649C339.169 278 338.895 278.164 339.038 278.366L339.934 279.625C340.08 279.83 340.599 280 341.086 280Z" fill="#D4D4D4"></path>
<path d="M343.214 283H362.359C362.87 283 363.129 282.83 362.936 282.625L361.761 281.365C361.574 281.164 361.01 281 360.508 281H341.676C341.173 281 340.888 281.164 341.041 281.365L341.999 282.625C342.156 282.83 342.701 283 343.212 283H343.214Z" fill="#D4D4D4"></path>
<path d="M297.931 283H315.876C316.648 283 317.138 282.718 316.965 282.375L315.073 278.585C314.911 278.262 314.174 278 313.434 278H296.163C295.421 278 294.904 278.262 295.015 278.585L296.316 282.375C296.434 282.718 297.162 283 297.933 283H297.931Z" fill="#D4D4D4"></path>
<path d="M230.254 277H247.576C248.32 277 248.932 276.719 248.938 276.375L249 272.586C249.004 272.264 248.423 272 247.705 272H231.009C230.292 272 229.663 272.262 229.612 272.586L229.004 276.375C228.949 276.719 229.512 277 230.256 277H230.254Z" fill="#D4D4D4"></path>
<path d="M208.131 277H224.932C225.653 277 226.291 276.719 226.35 276.375L226.996 272.586C227.051 272.264 226.527 272 225.83 272H209.636C208.941 272 208.289 272.262 208.19 272.586L207.014 276.375C206.907 276.719 207.411 277 208.133 277H208.131Z" fill="#D4D4D4"></path>
<path d="M188.569 283H291.233C292.991 283 294.221 282.352 293.967 281.568L293.25 279.355C293.008 278.607 291.427 278 289.732 278H190.922C189.227 278 187.544 278.607 187.173 279.355L186.077 281.568C185.689 282.352 186.808 283 188.567 283H188.569Z" fill="#D4D4D4"></path>
<path d="M187.071 277H204.187C204.922 277 205.618 276.719 205.731 276.375L206.985 272.586C207.092 272.264 206.6 272 205.89 272H189.391C188.684 272 187.978 272.262 187.827 272.586L186.032 276.375C185.871 276.719 186.338 277 187.073 277H187.071Z" fill="#D4D4D4"></path>
<path d="M165.011 277H182.416C183.163 277 183.915 276.719 184.086 276.375L185.968 272.586C186.128 272.264 185.67 272 184.948 272H168.172C167.452 272 166.694 272.262 166.487 272.586L164.057 276.375C163.838 276.719 164.268 277 165.016 277H165.011Z" fill="#D4D4D4"></path>
<path d="M163.055 283H181.24C182.022 283 182.808 282.718 182.987 282.375L184.966 278.585C185.135 278.262 184.657 278 183.905 278H166.404C165.652 278 164.86 278.262 164.64 278.585L162.062 282.375C161.828 282.718 162.275 283 163.057 283H163.055Z" fill="#D4D4D4"></path>
<path d="M140.951 283H158.582C159.34 283 160.15 282.718 160.381 282.375L162.943 278.585C163.16 278.262 162.742 278 162.013 278H145.045C144.316 278 143.502 278.262 143.236 278.585L140.094 282.375C139.809 282.718 140.195 283 140.953 283H140.951Z" fill="#D4D4D4"></path>
<path d="M117.897 283H135.742C136.509 283 137.377 282.718 137.669 282.375L140.91 278.585C141.186 278.262 140.807 278 140.069 278H122.895C122.157 278 121.29 278.262 120.963 278.585L117.136 282.375C116.788 282.718 117.131 283 117.897 283Z" fill="#D4D4D4"></path>
<path d="M124.225 277H159.369C160.396 277 161.491 276.605 161.802 276.124L163.924 272.824C164.216 272.369 163.642 272 162.652 272H128.774C127.784 272 126.631 272.369 126.212 272.824L123.166 276.124C122.722 276.605 123.199 277 124.227 277H124.225Z" fill="#D4D4D4"></path>
<path d="M252.354 277H269.73C270.476 277 271.046 276.719 270.997 276.375L270.453 272.586C270.406 272.264 269.781 272 269.06 272H252.312C251.593 272 251.004 272.262 251.004 272.586L251 276.375C251 276.719 251.61 277 252.357 277H252.354Z" fill="#D4D4D4"></path>
</g>
<path opacity="0.3" d="M319.379 312H170.376C164.945 312 161.835 309.488 163.409 306.518L171.511 291.232C172.76 288.873 177.539 287 182.163 287H309.099C313.724 287 318.39 288.875 319.498 291.232L326.678 306.518C328.073 309.488 324.81 312 319.379 312Z" fill="#D4D4D4"></path>
<path d="M284.988 145.52C284.988 146.625 284.092 147.52 282.988 147.52L261 147.52C259.895 147.52 259 148.416 259 149.52L259 183.48C259 184.584 259.895 185.48 261 185.48L282.988 185.48C284.092 185.48 284.988 186.375 284.988 187.48L284.988 196.536C284.988 198.4 287.312 199.251 288.515 197.828L313.908 167.791C314.539 167.046 314.539 165.954 313.908 165.209L288.515 135.172C287.312 133.749 284.988 134.6 284.988 136.464L284.988 145.52Z" fill="#1D1D1D"></path>
<path d="M465.499 19.166H455.916" stroke="#272525" stroke-width="1.5" stroke-linecap="round"></path>
<path d="M450.166 5.75H462.624C463.514 5.75 463.96 5.75 464.333 5.79919C466.913 6.13888 468.944 8.16926 469.283 10.7495C469.333 11.1231 469.333 11.5682 469.333 12.4583" stroke="#272525" stroke-width="1.5"></path>
<path d="M434.834 13.321C434.834 11.6295 434.834 10.7837 434.967 10.0792C435.552 6.97791 437.978 4.55204 441.079 3.96691C441.784 3.83398 442.629 3.83398 444.321 3.83398C445.062 3.83398 445.433 3.83398 445.789 3.86729C447.324 4.01087 448.781 4.61414 449.968 5.5983C450.243 5.82658 450.505 6.08861 451.029 6.61267L452.084 7.66732C453.648 9.2309 454.429 10.0127 455.366 10.5335C455.88 10.8197 456.425 11.0456 456.991 11.207C458.022 11.5007 459.127 11.5007 461.338 11.5007H462.055C467.1 11.5007 469.623 11.5007 471.262 12.9755C471.413 13.1111 471.557 13.2547 471.693 13.4055C473.167 15.0452 473.167 17.5679 473.167 22.6133V26.834C473.167 34.0622 473.167 37.6763 470.922 39.9218C468.676 42.1673 465.062 42.1673 457.834 42.1673H450.167C442.939 42.1673 439.325 42.1673 437.079 39.9218C434.834 37.6763 434.834 34.0622 434.834 26.834V13.321Z" fill="white" stroke="#272525" stroke-width="1.5"></path>
<g clip-path="url(#clip0_713_33312)">
<path d="M12.2394 298.593L2.16351 298.593C0.954445 313.694 6.69831 317.98 11.2318 317.98L22.3154 319L33.9018 318.49C36.0848 318.32 41.0554 317.47 43.4736 315.429C45.8917 313.388 46.8321 304.375 47 300.123L46.4967 298.594C40.8544 296.961 35.9169 299.103 34.4056 300.123L28.3603 306.245C26.1772 306.415 21.4081 306.653 19.7961 306.245C18.184 305.837 15.2622 301.144 12.2394 298.593Z" fill="#449968"></path>
<path d="M25 274L25 292M25 292L32 285.25M25 292L18 285.25" stroke="#1C274C" stroke-width="1.18987" stroke-linecap="round" stroke-linejoin="round"></path>
<path d="M2 299H9.11059C11.1472 299 12.1655 299 13.0606 299.418C13.9558 299.836 14.6185 300.622 15.9439 302.193L17.3061 303.807C18.6315 305.378 19.2942 306.164 20.1894 306.582C21.0845 307 22.1028 307 24.1394 307H24.8606C26.8972 307 27.9155 307 28.8106 306.582C29.7058 306.164 30.3685 305.378 31.6939 303.807L33.0561 302.193C34.3815 300.622 35.0442 299.836 35.9394 299.418C36.8345 299 37.8528 299 39.8894 299H47" stroke="#1C274C" stroke-width="1.18987" stroke-linecap="round"></path>
<path d="M35.75 274C39.4066 274.362 41.8679 275.18 43.705 277.029C47 280.345 47 285.682 47 296.356C47 307.031 47 312.368 43.705 315.684C40.4099 319 35.1066 319 24.5 319C13.8934 319 8.5901 319 5.29505 315.684C2 312.368 2 307.031 2 296.356C2 285.682 2 280.345 5.29505 277.029C7.13212 275.18 9.59343 274.362 13.25 274" stroke="#1C274C" stroke-width="1.18987" stroke-linecap="round"></path>
</g>
<path d="M362.381 245.537C363.321 240.656 360.124 235.944 355.242 235.012C350.359 234.08 345.64 237.281 344.701 242.162C343.761 247.043 346.958 251.756 351.84 252.688C356.723 253.62 361.442 250.418 362.381 245.537Z" fill="#D71339" stroke="#D71339"></path>
<path d="M517.598 245.362C518.744 240.525 515.75 235.682 510.912 234.545C506.073 233.407 501.221 236.406 500.075 241.243C498.929 246.079 501.923 250.922 506.761 252.06C511.6 253.197 516.452 250.198 517.598 245.362Z" fill="#D71339" stroke="#D71339" stroke-width="0.3"></path>
<path d="M354 280.051V108.949C354 104.012 358.022 100 362.996 100H466.193L507.999 141.61V280.051C507.999 284.988 503.977 289 499.004 289H362.996C358.024 289 354 284.99 354 280.051Z" fill="white" stroke="#F33157" stroke-width="2"></path>
<rect x="378" y="209" width="105" height="48" rx="6" fill="#F33157"></rect>
<path d="M403.5 243V223H412.582C414.801 223 416.512 223.567 417.716 224.702C418.919 225.818 419.521 227.378 419.521 229.383C419.521 231.388 418.919 232.957 417.716 234.092C416.512 235.227 414.801 235.794 412.582 235.794H407.872V243H403.5ZM407.872 232.39H411.849C414.162 232.39 415.318 231.388 415.318 229.383C415.318 227.416 414.162 226.433 411.849 226.433H407.872V232.39Z" fill="white"></path>
<path d="M422.231 243V223H430.016C433.4 223 436.023 223.87 437.885 225.61C439.747 227.331 440.677 229.79 440.677 232.986C440.677 236.182 439.747 238.65 437.885 240.39C436.023 242.13 433.4 243 430.016 243H422.231ZM426.603 239.397H429.762C433.993 239.397 436.108 237.26 436.108 232.986C436.108 228.73 433.993 226.603 429.762 226.603H426.603V239.397Z" fill="white"></path>
<path d="M444.074 243V223H457.5V226.433H448.446V231.312H456.879V234.745H448.446V243H444.074Z" fill="white"></path>
<g opacity="0.3">
<path d="M464 149H398C396.895 149 396 149.895 396 151V157C396 158.105 396.895 159 398 159H464C465.105 159 466 158.105 466 157V151C466 149.895 465.105 149 464 149Z" fill="#F33157"></path>
<path d="M464 167H398C396.895 167 396 167.895 396 169V175C396 176.105 396.895 177 398 177H464C465.105 177 466 176.105 466 175V169C466 167.895 465.105 167 464 167Z" fill="#F33157"></path>
<path d="M464 185H398C396.895 185 396 185.895 396 187V193C396 194.105 396.895 195 398 195H464C465.105 195 466 194.105 466 193V187C466 185.895 465.105 185 464 185Z" fill="#F33157"></path>
</g>
<path d="M468 131.425V101.414L506.586 140H476.575C471.84 140 468 136.162 468 131.425Z" fill="white" stroke="#F33157" stroke-width="2"></path>
<g filter="url(#filter0_d_713_33312)">
<path d="M508.958 254.052H353.042C348.048 254.052 344 249.999 344 245V292.948C344 297.947 348.048 302 353.042 302H508.958C513.952 302 518 297.947 518 292.948V245C518 249.999 513.952 254.052 508.958 254.052Z" fill="#F33157"></path>
</g>
<path d="M73.3815 175.537C74.3208 170.656 71.1242 165.944 66.2418 165.012C61.3594 164.08 56.64 167.281 55.7007 172.162C54.7614 177.043 57.958 181.756 62.8404 182.688C67.7228 183.62 72.4422 180.418 73.3815 175.537Z" fill="#2A7148" stroke="#2A7148"></path>
<path d="M228.598 177.362C229.744 172.525 226.75 167.682 221.912 166.545C217.073 165.407 212.221 168.406 211.075 173.243C209.929 178.079 212.923 182.922 217.761 184.06C222.6 185.197 227.452 182.198 228.598 177.362Z" fill="#2A7148" stroke="#2A7148" stroke-width="0.3"></path>
<path d="M65 210.051V38.9488C65 34.0118 69.0219 30 73.9958 30H177.193L218.999 71.6098V210.051C218.999 214.988 214.977 219 210.004 219H73.9958C69.0239 219 65 214.99 65 210.051Z" fill="white" stroke="#449968" stroke-width="2"></path>
<rect x="82" y="139" width="120" height="48" rx="6" fill="#449968"></rect>
<path d="M103 173V153H107.366V161.028H116.605V153H120.971V173H116.605V164.688H107.366V173H103Z" fill="white"></path>
<path d="M129.711 173V156.631H123.148V153H140.64V156.631H134.077V173H129.711Z" fill="white"></path>
<path d="M142.833 173V153H146.467L153.171 165.284L159.846 153H163.424V173H159.452V160.801L154.325 169.993H151.875L146.776 160.887V173H142.833Z" fill="white"></path>
<path d="M167.451 173V153H171.817V169.284H181V173H167.451Z" fill="white"></path>
<g opacity="0.3">
<path d="M175 79H109C107.895 79 107 79.8954 107 81V87C107 88.1046 107.895 89 109 89H175C176.105 89 177 88.1046 177 87V81C177 79.8954 176.105 79 175 79Z" fill="#449968"></path>
<path d="M175 97H109C107.895 97 107 97.8954 107 99V105C107 106.105 107.895 107 109 107H175C176.105 107 177 106.105 177 105V99C177 97.8954 176.105 97 175 97Z" fill="#449968"></path>
<path d="M175 115H109C107.895 115 107 115.895 107 117V123C107 124.105 107.895 125 109 125H175C176.105 125 177 124.105 177 123V117C177 115.895 176.105 115 175 115Z" fill="#449968"></path>
</g>
<path d="M179 61.4248V31.4142L217.586 70H187.575C182.84 70 179 66.1618 179 61.4248Z" fill="white" stroke="#449968" stroke-width="2"></path>
<g filter="url(#filter1_d_713_33312)">
<path d="M219.958 184.052H64.0424C59.0484 184.052 55 179.999 55 175V222.948C55 227.947 59.0484 232 64.0424 232H219.958C224.952 232 229 227.947 229 222.948V175C229 179.999 224.952 184.052 219.958 184.052Z" fill="#449968"></path>
</g>
<defs>
<filter id="filter0_d_713_33312" x="344" y="243" width="174" height="59" filterUnits="userSpaceOnUse" color-interpolation-filters="sRGB">
<feFlood flood-opacity="0" result="BackgroundImageFix"></feFlood>
<feColorMatrix in="SourceAlpha" type="matrix" values="0 0 0 0 0 0 0 0 0 0 0 0 0 0 0 0 0 0 127 0" result="hardAlpha"></feColorMatrix>
<feOffset dy="-2"></feOffset>
<feComposite in2="hardAlpha" operator="out"></feComposite>
<feColorMatrix type="matrix" values="0 0 0 0 0.843137 0 0 0 0 0.0745098 0 0 0 0 0.223529 0 0 0 1 0"></feColorMatrix>
<feBlend mode="normal" in2="BackgroundImageFix" result="effect1_dropShadow_713_33312"></feBlend>
<feBlend mode="normal" in="SourceGraphic" in2="effect1_dropShadow_713_33312" result="shape"></feBlend>
</filter>
<filter id="filter1_d_713_33312" x="55" y="173" width="174" height="59" filterUnits="userSpaceOnUse" color-interpolation-filters="sRGB">
<feFlood flood-opacity="0" result="BackgroundImageFix"></feFlood>
<feColorMatrix in="SourceAlpha" type="matrix" values="0 0 0 0 0 0 0 0 0 0 0 0 0 0 0 0 0 0 127 0" result="hardAlpha"></feColorMatrix>
<feOffset dy="-2"></feOffset>
<feComposite in2="hardAlpha" operator="out"></feComposite>
<feColorMatrix type="matrix" values="0 0 0 0 0.164706 0 0 0 0 0.443137 0 0 0 0 0.282353 0 0 0 1 0"></feColorMatrix>
<feBlend mode="normal" in2="BackgroundImageFix" result="effect1_dropShadow_713_33312"></feBlend>
<feBlend mode="normal" in="SourceGraphic" in2="effect1_dropShadow_713_33312" result="shape"></feBlend>
</filter>
<clipPath id="clip0_713_33312">
<rect x="1" y="272" width="47" height="47" fill="white"></rect>
</clipPath>
<clipPath id="SvgjsClipPath1049"><rect width="1000" height="1000" x="0" y="0" rx="500" ry="500"></rect></clipPath></defs>
</svg></svg></g></g></svg>